<svg id="mid-layer" xmlns="http://www.w3.org/2000/svg" viewBox="0 0 245.93 245.93">
  <defs>
    <style>
      .cls-1 {
        fill: #ff3a4a;
      }

      .cls-2 {
        fill: #fff;
      }
    </style>
  </defs>
  <rect class="cls-1" width="245.93" height="245.93" rx="6.86" ry="6.86"/>
  <path class="cls-2" d="M83.72,126.05a35.68,35.68,0,0,1-26.17-10.86A35.67,35.67,0,0,1,46.69,89,35.5,35.5,0,0,1,57.55,62.9,35.68,35.68,0,0,1,83.72,52a35.9,35.9,0,0,1,22.5,7.66,6,6,0,0,1,2.38,4.09,5.92,5.92,0,0,1-1.24,4.5,6.16,6.16,0,0,1-8.59,1.14,24.77,24.77,0,0,0-32.59,2.12,24.79,24.79,0,0,0,0,35,24,24,0,0,0,17.53,7.24c4.93,0,10.15-.8,14.22-3.8a8.9,8.9,0,0,0,1.14-1,5.88,5.88,0,0,0,1.67-4.31l0-8.58h-8.3a6.11,6.11,0,0,1-4.34-10.45,5.82,5.82,0,0,1,4.34-1.81h14.46A6.18,6.18,0,0,1,113.1,90c0,4.68-.07,11.39-.07,11.39q0,3.35,0,6.71a10.4,10.4,0,0,1-3.34,8.15,37.27,37.27,0,0,1-8.39,5.62A37.9,37.9,0,0,1,83.72,126.05Z" transform="translate(-4.93 -5.36)"/>
  <path class="cls-2" d="M174.72,126.26a35.65,35.65,0,0,1-26.22-10.91,35.64,35.64,0,0,1-10.91-26.22A37.17,37.17,0,0,1,174.72,52a37.09,37.09,0,0,1,37.14,37.14,37.17,37.17,0,0,1-37.14,37.14Zm0-62.07a25,25,0,0,0-24.93,24.93,24.91,24.91,0,0,0,42.57,17.59,24.91,24.91,0,0,0,0-35.22A24.15,24.15,0,0,0,174.72,64.19Z" transform="translate(-4.93 -5.36)"/>
  <path class="cls-2" d="M56.48,194.55a3.07,3.07,0,0,1-3.08-3.08v-31.2a3,3,0,0,1,.91-2.19,2.94,2.94,0,0,1,2.16-.89h7.9a18.62,18.62,0,1,1,0,37.25l-7.85.1Zm3.1-6.2,4.77-.08a12.46,12.46,0,0,0,0-24.92h-4.8Z" transform="translate(-4.93 -5.36)"/>
  <path class="cls-2" d="M119.54,188.37a2.89,2.89,0,0,1,2.16.91,3,3,0,0,1,.91,2.19,3.12,3.12,0,0,1-3.08,3.08H100.67a3.12,3.12,0,0,1-3.08-3.08V160.22a3.11,3.11,0,0,1,3.08-3.1h0l18.85.05a3,3,0,0,1,2.19.91,3,3,0,0,1,.89,2.19,3.12,3.12,0,0,1-3.08,3.08h0l-15.74-.05v9.46h11.37a3,3,0,0,1,2.19.89,3.08,3.08,0,0,1,0,4.38,3,3,0,0,1-2.19.89H103.77v9.46Z" transform="translate(-4.93 -5.36)"/>
  <path class="cls-2" d="M180.76,194.31a3,3,0,0,1-1.67-1.67,3.05,3.05,0,0,1,0-2.35l3.31-8v0L192,159.17a1.67,1.67,0,0,1,.13-.26l.05-.13.1-.13a.38.38,0,0,1,.08-.13l.1-.1s0-.05.08-.1.1-.11.1-.13l.1-.08c.07-.07.11-.1.13-.1s0,0,.1-.08l.13-.1.1-.08.16-.08.18-.08.08-.05.1-.05.18-.05.18-.05.1,0,.18,0,.13,0h.6l.16,0,.13,0a.6.6,0,0,1,.18.05l.1,0a2.13,2.13,0,0,1,.57.23l.1.05.16.1.1.08.13.1s.05,0,.1.08a.49.49,0,0,0,.13.1s0,.05.08.1.1.11.1.13l.08.1c.07.07.1.11.1.13a.39.39,0,0,0,.08.13.38.38,0,0,1,.08.13,2.13,2.13,0,0,1,.13.26l9.59,23.15v0l3.31,8a3.07,3.07,0,0,1-1.67,4,3.08,3.08,0,0,1-1.17.23,2.84,2.84,0,0,1-2.84-1.9l-2.5-6H187.28l-2.5,6a2.84,2.84,0,0,1-2.84,1.9h-.6Zm19.08-13.84-5-12.1-5,12.1Z" transform="translate(-4.93 -5.36)"/>
  <path class="cls-2" d="M151.9,194.54A18.68,18.68,0,1,1,163.26,161a3,3,0,0,1,1.2,2.06,3,3,0,0,1-.63,2.27,3.11,3.11,0,0,1-4.33.57,12.5,12.5,0,1,0-7.6,22.4,12,12,0,0,0,7.18-1.92,4.48,4.48,0,0,0,.58-.5,3,3,0,0,0,.84-2.18l0-4.33h-4.19a3.08,3.08,0,0,1-2.19-5.27,2.94,2.94,0,0,1,2.19-.91h7.3a3.12,3.12,0,0,1,3.11,3.11c0,2.36,0,5.75,0,5.75l0,3.38A5.25,5.25,0,0,1,165,189.6a18.81,18.81,0,0,1-4.24,2.84A19.13,19.13,0,0,1,151.9,194.54Z" transform="translate(-4.93 -5.36)"/>
</svg>
